<svg xmlns="http://www.w3.org/2000/svg" xmlns:xlink="http://www.w3.org/1999/xlink" width="500" zoomAndPan="magnify" viewBox="0 0 375 374.999991" height="500" preserveAspectRatio="xMidYMid meet" version="1.0"><defs><clipPath id="2f21989472"><path d="M 0 3 L 375 3 L 375 371.96875 L 0 371.96875 Z M 0 3 " clip-rule="nonzero"/></clipPath></defs><path fill="#29fd53" d="M 45.933594 213.859375 C 43.011719 213.859375 41.0625 211.910156 41.0625 208.984375 C 41.0625 206.0625 43.011719 204.113281 45.933594 204.113281 L 329.066406 204.113281 C 331.988281 204.113281 333.9375 206.0625 333.9375 208.984375 C 333.9375 211.910156 331.988281 213.859375 329.066406 213.859375 Z M 45.933594 213.859375 " fill-opacity="1" fill-rule="nonzero"/><g clip-path="url(#2f21989472)"><path fill="#29fd53" d="M 362.28125 61.519531 L 359.355469 56.648438 L 331.988281 5.890625 C 331.015625 3.941406 328.089844 2.96875 326.140625 3.941406 C 324.191406 4.917969 324.191406 7.839844 325.164062 9.789062 L 350.585938 56.648438 L 334.015625 66.394531 L 307.621094 18.5625 C 306.644531 16.613281 304.695312 16.613281 302.746094 17.585938 C 300.796875 18.5625 299.820312 20.511719 300.796875 22.460938 L 326.214844 70.292969 L 309.644531 79.0625 L 284.226562 32.207031 C 283.25 30.257812 280.328125 29.28125 278.378906 30.257812 C 276.429688 31.230469 275.453125 34.15625 276.429688 36.105469 L 304.769531 85.886719 L 307.695312 91.734375 C 313.542969 103.429688 328.164062 111.226562 341.886719 104.402344 C 347.734375 115.125 351.632812 126.820312 355.535156 139.5625 C 359.433594 154.183594 361.382812 168.875 361.382812 184.46875 C 361.382812 232.300781 341.886719 275.257812 310.621094 307.496094 C 279.351562 338.757812 235.414062 358.25 187.574219 358.25 C 139.738281 358.25 95.796875 338.757812 64.53125 307.496094 C 33.261719 275.257812 13.769531 232.300781 13.769531 184.46875 C 13.769531 168.875 15.71875 154.183594 19.617188 139.5625 C 22.539062 127.867188 27.414062 116.097656 33.261719 104.402344 C 45.933594 111.226562 59.65625 99.53125 68.429688 89.785156 C 74.277344 82.960938 79.152344 74.191406 83.050781 65.34375 C 85.976562 56.570312 86.949219 46.824219 85.976562 38.953125 C 85 29.207031 80.125 22.386719 72.328125 17.511719 C 63.554688 12.640625 53.808594 13.613281 44.960938 17.511719 C 37.164062 21.410156 30.339844 28.234375 24.492188 35.054688 C 19.542969 43.003906 14.667969 51.773438 11.742188 60.546875 C 7.84375 74.191406 6.871094 90.832031 20.515625 98.628906 C 14.667969 110.324219 9.792969 123.070312 5.894531 135.738281 C 1.996094 151.332031 0.046875 167.976562 0.046875 184.542969 C 0.046875 236.273438 20.515625 283.128906 54.707031 317.316406 C 88.898438 351.503906 135.761719 371.96875 187.5 371.96875 C 239.238281 371.96875 286.101562 351.503906 320.292969 317.316406 C 354.484375 283.128906 374.953125 236.273438 374.953125 184.542969 C 374.953125 167.976562 373.003906 151.332031 369.105469 135.738281 C 365.207031 123.070312 360.332031 110.324219 354.484375 97.65625 C 368.128906 90.832031 369.105469 74.265625 362.28125 61.519531 Z M 362.28125 61.519531 " fill-opacity="1" fill-rule="nonzero"/></g><path fill="#29fd53" d="M 199.195312 43.003906 C 196.273438 40.078125 192.375 38.128906 187.5 38.128906 C 182.625 38.128906 178.726562 40.078125 174.828125 43.003906 C 171.902344 46.902344 169.953125 50.800781 169.953125 55.671875 C 169.953125 55.671875 169.953125 56.648438 169.953125 57.621094 C 138.6875 61.519531 109.445312 76.140625 88.898438 98.628906 C 66.40625 122.09375 51.785156 152.308594 49.835938 187.46875 C 49.835938 190.390625 51.785156 192.339844 54.707031 192.339844 L 320.292969 192.339844 C 323.214844 192.339844 325.164062 190.390625 325.164062 187.46875 C 323.214844 153.28125 308.59375 122.09375 286.101562 98.628906 C 264.65625 76.214844 236.3125 61.519531 204.070312 57.621094 C 205.046875 56.648438 205.046875 55.671875 205.046875 55.671875 C 205.046875 50.800781 203.097656 46.902344 199.195312 43.003906 Z M 292.925781 169.925781 C 290 153.359375 282.203125 139.636719 272.453125 126.96875 C 262.707031 114.296875 251.007812 104.550781 236.3125 96.679688 C 233.386719 95.707031 232.414062 92.78125 234.363281 90.832031 C 235.339844 87.910156 238.261719 86.933594 240.210938 87.910156 C 255.808594 95.707031 269.53125 107.402344 280.253906 121.121094 C 290.972656 134.765625 298.773438 150.433594 302.671875 167.003906 C 303.644531 169.925781 301.695312 172.851562 298.773438 172.851562 C 296.824219 173.824219 293.898438 171.875 292.925781 169.925781 Z M 226.566406 92.78125 C 224.617188 91.808594 221.691406 90.832031 219.742188 89.859375 C 216.816406 88.882812 214.867188 88.882812 211.945312 87.910156 C 209.019531 87.910156 208.042969 84.984375 208.042969 82.0625 C 209.019531 80.113281 211.945312 78.164062 213.894531 79.136719 C 216.816406 79.136719 219.742188 80.113281 222.667969 81.085938 C 225.589844 82.0625 227.539062 83.035156 230.464844 84.011719 C 232.414062 84.984375 234.363281 87.910156 233.386719 89.859375 C 232.414062 92.78125 229.488281 93.757812 226.566406 92.78125 Z M 226.566406 92.78125 " fill-opacity="1" fill-rule="nonzero"/><path fill="#29fd53" d="M 248.011719 296.773438 C 250.933594 294.824219 255.808594 295.800781 257.757812 299.699219 C 259.707031 302.621094 258.730469 306.519531 255.808594 308.46875 C 245.085938 315.292969 234.363281 320.164062 222.589844 323.089844 C 210.894531 326.988281 199.121094 328.9375 187.425781 328.9375 C 175.726562 328.9375 163.957031 326.988281 152.257812 323.089844 C 140.5625 320.164062 129.839844 315.292969 119.042969 308.46875 C 116.117188 306.519531 115.144531 302.621094 117.09375 299.699219 C 119.042969 295.800781 122.941406 294.824219 126.839844 296.773438 C 135.613281 302.621094 145.359375 307.496094 156.15625 310.417969 C 165.90625 313.34375 176.628906 314.316406 187.425781 314.316406 C 198.148438 314.316406 208.871094 313.34375 218.691406 310.417969 C 229.488281 307.570312 239.238281 302.621094 248.011719 296.773438 Z M 248.011719 296.773438 " fill-opacity="1" fill-rule="nonzero"/><path fill="#29fd53" d="M 146.484375 246.019531 C 146.484375 247.042969 146.386719 248.058594 146.183594 249.0625 C 145.984375 250.066406 145.691406 251.042969 145.296875 251.988281 C 144.90625 252.933594 144.425781 253.832031 143.855469 254.683594 C 143.289062 255.535156 142.640625 256.320312 141.917969 257.046875 C 141.191406 257.769531 140.40625 258.417969 139.554688 258.984375 C 138.703125 259.554688 137.804688 260.035156 136.855469 260.425781 C 135.910156 260.816406 134.9375 261.113281 133.933594 261.3125 C 132.925781 261.515625 131.914062 261.613281 130.890625 261.613281 C 129.863281 261.613281 128.851562 261.515625 127.847656 261.3125 C 126.84375 261.113281 125.867188 260.816406 124.921875 260.425781 C 123.972656 260.035156 123.074219 259.554688 122.222656 258.984375 C 121.371094 258.417969 120.585938 257.769531 119.859375 257.046875 C 119.136719 256.320312 118.492188 255.535156 117.921875 254.683594 C 117.351562 253.832031 116.871094 252.933594 116.480469 251.988281 C 116.089844 251.042969 115.792969 250.066406 115.59375 249.0625 C 115.394531 248.058594 115.292969 247.042969 115.292969 246.019531 C 115.292969 244.996094 115.394531 243.980469 115.59375 242.976562 C 115.792969 241.972656 116.089844 241 116.480469 240.050781 C 116.871094 239.105469 117.351562 238.207031 117.921875 237.355469 C 118.492188 236.503906 119.136719 235.71875 119.859375 234.992188 C 120.585938 234.269531 121.371094 233.625 122.222656 233.054688 C 123.074219 232.484375 123.972656 232.003906 124.921875 231.613281 C 125.867188 231.222656 126.84375 230.925781 127.847656 230.726562 C 128.851562 230.527344 129.863281 230.425781 130.890625 230.425781 C 131.914062 230.425781 132.925781 230.527344 133.933594 230.726562 C 134.9375 230.925781 135.910156 231.222656 136.855469 231.613281 C 137.804688 232.003906 138.703125 232.484375 139.554688 233.054688 C 140.40625 233.625 141.191406 234.269531 141.917969 234.992188 C 142.640625 235.71875 143.289062 236.503906 143.855469 237.355469 C 144.425781 238.207031 144.90625 239.105469 145.296875 240.050781 C 145.691406 241 145.984375 241.972656 146.183594 242.976562 C 146.386719 243.980469 146.484375 244.996094 146.484375 246.019531 Z M 146.484375 246.019531 " fill-opacity="1" fill-rule="nonzero"/><path fill="#29fd53" d="M 259.707031 246.019531 C 259.707031 247.042969 259.605469 248.058594 259.40625 249.0625 C 259.207031 250.066406 258.910156 251.042969 258.519531 251.988281 C 258.128906 252.933594 257.648438 253.832031 257.078125 254.683594 C 256.507812 255.535156 255.863281 256.320312 255.140625 257.046875 C 254.414062 257.769531 253.628906 258.417969 252.777344 258.984375 C 251.925781 259.554688 251.027344 260.035156 250.078125 260.425781 C 249.132812 260.816406 248.15625 261.113281 247.152344 261.3125 C 246.148438 261.515625 245.136719 261.613281 244.109375 261.613281 C 243.085938 261.613281 242.074219 261.515625 241.066406 261.3125 C 240.0625 261.113281 239.089844 260.816406 238.140625 260.425781 C 237.195312 260.035156 236.296875 259.554688 235.445312 258.984375 C 234.59375 258.417969 233.808594 257.769531 233.082031 257.046875 C 232.359375 256.320312 231.710938 255.535156 231.144531 254.683594 C 230.574219 253.832031 230.09375 252.933594 229.703125 251.988281 C 229.308594 251.042969 229.015625 250.066406 228.816406 249.0625 C 228.613281 248.058594 228.515625 247.042969 228.515625 246.019531 C 228.515625 244.996094 228.613281 243.980469 228.816406 242.976562 C 229.015625 241.972656 229.308594 241 229.703125 240.050781 C 230.09375 239.105469 230.574219 238.207031 231.144531 237.355469 C 231.710938 236.503906 232.359375 235.71875 233.082031 234.992188 C 233.808594 234.269531 234.59375 233.625 235.445312 233.054688 C 236.296875 232.484375 237.195312 232.003906 238.140625 231.613281 C 239.089844 231.222656 240.0625 230.925781 241.066406 230.726562 C 242.074219 230.527344 243.085938 230.425781 244.109375 230.425781 C 245.136719 230.425781 246.148438 230.527344 247.152344 230.726562 C 248.15625 230.925781 249.132812 231.222656 250.078125 231.613281 C 251.027344 232.003906 251.925781 232.484375 252.777344 233.054688 C 253.628906 233.625 254.414062 234.269531 255.140625 234.992188 C 255.863281 235.71875 256.507812 236.503906 257.078125 237.355469 C 257.648438 238.207031 258.128906 239.105469 258.519531 240.050781 C 258.910156 241 259.207031 241.972656 259.40625 242.976562 C 259.605469 243.980469 259.707031 244.996094 259.707031 246.019531 Z M 259.707031 246.019531 " fill-opacity="1" fill-rule="nonzero"/></svg>