<svg xmlns="http://www.w3.org/2000/svg" xmlns:xlink="http://www.w3.org/1999/xlink" width="500" zoomAndPan="magnify" viewBox="0 0 375 374.999991" height="500" preserveAspectRatio="xMidYMid meet" version="1.0"><defs><clipPath id="d67f7ccfde"><path d="M 22.03125 1 L 329 1 L 329 309 L 22.03125 309 Z M 22.03125 1 " clip-rule="nonzero"/></clipPath></defs><g clip-path="url(#d67f7ccfde)"><path fill="#29fd53" d="M 175.359375 308.039062 C 172.851562 308.039062 170.34375 307.976562 167.835938 307.855469 C 165.328125 307.730469 162.828125 307.546875 160.332031 307.300781 C 157.832031 307.054688 155.34375 306.746094 152.859375 306.378906 C 150.378906 306.011719 147.90625 305.582031 145.445312 305.09375 C 142.984375 304.601562 140.539062 304.050781 138.101562 303.441406 C 135.667969 302.832031 133.25 302.164062 130.851562 301.433594 C 128.449219 300.707031 126.066406 299.917969 123.703125 299.070312 C 121.339844 298.226562 119 297.324219 116.683594 296.363281 C 114.363281 295.402344 112.070312 294.382812 109.804688 293.3125 C 107.535156 292.238281 105.292969 291.109375 103.082031 289.925781 C 100.867188 288.742188 98.683594 287.503906 96.53125 286.214844 C 94.378906 284.921875 92.261719 283.578125 90.175781 282.183594 C 88.089844 280.789062 86.039062 279.34375 84.023438 277.847656 C 82.007812 276.355469 80.027344 274.808594 78.089844 273.214844 C 76.148438 271.625 74.25 269.984375 72.390625 268.296875 C 70.53125 266.613281 68.714844 264.882812 66.941406 263.105469 C 65.164062 261.332031 63.4375 259.511719 61.75 257.652344 C 60.066406 255.792969 58.425781 253.890625 56.835938 251.949219 C 55.242188 250.011719 53.699219 248.03125 52.203125 246.015625 C 50.710938 243.996094 49.265625 241.945312 47.871094 239.859375 C 46.476562 237.769531 45.136719 235.648438 43.84375 233.496094 C 42.554688 231.34375 41.320312 229.160156 40.136719 226.945312 C 38.953125 224.730469 37.824219 222.488281 36.753906 220.21875 C 35.679688 217.949219 34.664062 215.65625 33.703125 213.335938 C 32.742188 211.015625 31.839844 208.671875 30.996094 206.308594 C 30.148438 203.945312 29.363281 201.5625 28.632812 199.160156 C 27.90625 196.757812 27.234375 194.335938 26.625 191.902344 C 26.015625 189.464844 25.46875 187.019531 24.976562 184.554688 C 24.488281 182.09375 24.058594 179.621094 23.691406 177.136719 C 23.324219 174.652344 23.015625 172.160156 22.769531 169.664062 C 22.523438 167.164062 22.339844 164.660156 22.214844 162.152344 C 22.09375 159.644531 22.03125 157.136719 22.03125 154.625 C 22.03125 152.113281 22.09375 149.605469 22.214844 147.097656 C 22.339844 144.589844 22.523438 142.085938 22.769531 139.589844 C 23.015625 137.089844 23.324219 134.597656 23.691406 132.113281 C 24.058594 129.632812 24.488281 127.15625 24.976562 124.695312 C 25.46875 122.234375 26.015625 119.785156 26.625 117.347656 C 27.234375 114.914062 27.90625 112.492188 28.632812 110.089844 C 29.363281 107.6875 30.148438 105.304688 30.996094 102.941406 C 31.839844 100.578125 32.742188 98.234375 33.703125 95.917969 C 34.664062 93.597656 35.679688 91.300781 36.753906 89.03125 C 37.824219 86.761719 38.953125 84.519531 40.136719 82.304688 C 41.320312 80.09375 42.554688 77.90625 43.84375 75.753906 C 45.136719 73.601562 46.476562 71.480469 47.871094 69.394531 C 49.265625 67.304688 50.710938 65.253906 52.203125 63.238281 C 53.699219 61.21875 55.242188 59.242188 56.835938 57.300781 C 58.425781 55.359375 60.066406 53.457031 61.75 51.597656 C 63.4375 49.738281 65.164062 47.921875 66.941406 46.144531 C 68.714844 44.371094 70.53125 42.640625 72.390625 40.953125 C 74.25 39.265625 76.148438 37.628906 78.089844 36.035156 C 80.027344 34.441406 82.007812 32.898438 84.023438 31.402344 C 86.039062 29.90625 88.089844 28.460938 90.175781 27.066406 C 92.261719 25.671875 94.378906 24.328125 96.53125 23.039062 C 98.683594 21.746094 100.867188 20.507812 103.082031 19.324219 C 105.292969 18.140625 107.535156 17.011719 109.804688 15.941406 C 112.070312 14.867188 114.363281 13.847656 116.683594 12.886719 C 119 11.929688 121.34375 11.023438 123.703125 10.179688 C 126.066406 9.332031 128.449219 8.546875 130.851562 7.816406 C 133.25 7.085938 135.667969 6.417969 138.101562 5.808594 C 140.539062 5.199219 142.984375 4.648438 145.445312 4.160156 C 147.90625 3.667969 150.378906 3.238281 152.859375 2.871094 C 155.34375 2.503906 157.832031 2.195312 160.332031 1.949219 C 162.828125 1.703125 165.328125 1.519531 167.835938 1.394531 C 170.34375 1.273438 172.851562 1.210938 175.359375 1.210938 C 177.867188 1.210938 180.375 1.273438 182.882812 1.394531 C 185.390625 1.519531 187.890625 1.703125 190.386719 1.949219 C 192.886719 2.195312 195.375 2.503906 197.855469 2.871094 C 200.339844 3.238281 202.8125 3.667969 205.273438 4.160156 C 207.734375 4.648438 210.179688 5.199219 212.613281 5.808594 C 215.046875 6.417969 217.464844 7.085938 219.867188 7.816406 C 222.269531 8.546875 224.652344 9.332031 227.011719 10.179688 C 229.375 11.023438 231.714844 11.929688 234.035156 12.886719 C 236.351562 13.847656 238.648438 14.867188 240.914062 15.941406 C 243.183594 17.011719 245.425781 18.140625 247.636719 19.324219 C 249.851562 20.507812 252.03125 21.746094 254.183594 23.039062 C 256.335938 24.328125 258.457031 25.671875 260.542969 27.066406 C 262.628906 28.460938 264.679688 29.90625 266.695312 31.402344 C 268.710938 32.898438 270.691406 34.441406 272.628906 36.035156 C 274.570312 37.628906 276.46875 39.265625 278.328125 40.953125 C 280.1875 42.640625 282.003906 44.371094 283.777344 46.144531 C 285.550781 47.921875 287.28125 49.738281 288.96875 51.597656 C 290.652344 53.457031 292.292969 55.359375 293.882812 57.300781 C 295.476562 59.242188 297.019531 61.21875 298.511719 63.238281 C 300.007812 65.253906 301.453125 67.304688 302.847656 69.394531 C 304.242188 71.480469 305.582031 73.601562 306.871094 75.753906 C 308.164062 77.90625 309.398438 80.09375 310.582031 82.304688 C 311.765625 84.519531 312.894531 86.761719 313.964844 89.03125 C 315.039062 91.300781 316.054688 93.597656 317.015625 95.917969 C 317.976562 98.234375 318.878906 100.578125 319.722656 102.941406 C 320.570312 105.304688 321.355469 107.6875 322.085938 110.089844 C 322.8125 112.492188 323.480469 114.914062 324.089844 117.347656 C 324.703125 119.785156 325.25 122.234375 325.742188 124.695312 C 326.230469 127.15625 326.660156 129.632812 327.027344 132.113281 C 327.394531 134.597656 327.703125 137.089844 327.949219 139.589844 C 328.195312 142.085938 328.378906 144.589844 328.503906 147.097656 C 328.625 149.605469 328.6875 152.113281 328.6875 154.625 C 328.6875 157.136719 328.625 159.644531 328.503906 162.152344 C 328.378906 164.660156 328.195312 167.164062 327.949219 169.664062 C 327.703125 172.160156 327.394531 174.652344 327.027344 177.136719 C 326.660156 179.621094 326.230469 182.09375 325.742188 184.554688 C 325.25 187.019531 324.703125 189.464844 324.089844 191.902344 C 323.480469 194.335938 322.8125 196.757812 322.085938 199.160156 C 321.355469 201.5625 320.570312 203.945312 319.722656 206.308594 C 318.878906 208.671875 317.976562 211.015625 317.015625 213.335938 C 316.054688 215.65625 315.039062 217.949219 313.964844 220.21875 C 312.894531 222.488281 311.765625 224.730469 310.582031 226.945312 C 309.398438 229.160156 308.164062 231.34375 306.871094 233.496094 C 305.582031 235.648438 304.242188 237.769531 302.847656 239.859375 C 301.453125 241.945312 300.007812 243.996094 298.511719 246.015625 C 297.019531 248.03125 295.476562 250.011719 293.882812 251.949219 C 292.292969 253.890625 290.652344 255.792969 288.96875 257.652344 C 287.28125 259.511719 285.550781 261.332031 283.777344 263.105469 C 282.003906 264.882812 280.1875 266.613281 278.328125 268.296875 C 276.46875 269.984375 274.570312 271.625 272.628906 273.214844 C 270.691406 274.808594 268.710938 276.355469 266.695312 277.847656 C 264.679688 279.34375 262.628906 280.789062 260.542969 282.183594 C 258.457031 283.578125 256.335938 284.921875 254.183594 286.214844 C 252.03125 287.503906 249.851562 288.742188 247.636719 289.925781 C 245.425781 291.109375 243.183594 292.238281 240.914062 293.3125 C 238.648438 294.382812 236.351562 295.402344 234.035156 296.363281 C 231.714844 297.324219 229.375 298.226562 227.011719 299.070312 C 224.652344 299.917969 222.269531 300.707031 219.867188 301.433594 C 217.464844 302.164062 215.046875 302.832031 212.613281 303.441406 C 210.179688 304.050781 207.734375 304.601562 205.273438 305.09375 C 202.8125 305.582031 200.339844 306.011719 197.855469 306.378906 C 195.375 306.746094 192.886719 307.054688 190.386719 307.300781 C 187.890625 307.546875 185.390625 307.730469 182.882812 307.855469 C 180.375 307.976562 177.867188 308.039062 175.359375 308.039062 Z M 175.359375 45.042969 C 173.566406 45.042969 171.773438 45.085938 169.984375 45.175781 C 168.195312 45.261719 166.40625 45.394531 164.625 45.570312 C 162.839844 45.746094 161.0625 45.964844 159.289062 46.230469 C 157.515625 46.492188 155.75 46.800781 153.992188 47.148438 C 152.234375 47.5 150.488281 47.890625 148.746094 48.328125 C 147.007812 48.761719 145.28125 49.242188 143.566406 49.761719 C 141.851562 50.28125 140.152344 50.84375 138.464844 51.449219 C 136.773438 52.054688 135.105469 52.699219 133.449219 53.386719 C 131.792969 54.070312 130.152344 54.796875 128.535156 55.566406 C 126.914062 56.332031 125.3125 57.136719 123.730469 57.984375 C 122.152344 58.828125 120.59375 59.710938 119.054688 60.632812 C 117.515625 61.554688 116.003906 62.515625 114.511719 63.511719 C 113.023438 64.507812 111.558594 65.539062 110.117188 66.609375 C 108.679688 67.675781 107.265625 68.78125 105.878906 69.917969 C 104.496094 71.054688 103.136719 72.226562 101.808594 73.429688 C 100.480469 74.636719 99.183594 75.871094 97.917969 77.140625 C 96.648438 78.40625 95.414062 79.707031 94.210938 81.035156 C 93.007812 82.363281 91.835938 83.722656 90.699219 85.105469 C 89.5625 86.492188 88.460938 87.90625 87.390625 89.347656 C 86.324219 90.789062 85.292969 92.253906 84.296875 93.746094 C 83.300781 95.234375 82.34375 96.75 81.421875 98.289062 C 80.5 99.828125 79.617188 101.386719 78.769531 102.96875 C 77.925781 104.550781 77.121094 106.152344 76.355469 107.773438 C 75.589844 109.394531 74.863281 111.035156 74.175781 112.691406 C 73.488281 114.347656 72.84375 116.019531 72.242188 117.707031 C 71.636719 119.398438 71.074219 121.097656 70.554688 122.816406 C 70.035156 124.53125 69.558594 126.257812 69.121094 128 C 68.6875 129.738281 68.292969 131.488281 67.945312 133.246094 C 67.59375 135.007812 67.289062 136.773438 67.023438 138.546875 C 66.761719 140.320312 66.542969 142.101562 66.367188 143.882812 C 66.191406 145.667969 66.058594 147.457031 65.972656 149.25 C 65.882812 151.039062 65.839844 152.832031 65.839844 154.625 C 65.839844 156.417969 65.882812 158.210938 65.972656 160.003906 C 66.058594 161.792969 66.191406 163.582031 66.367188 165.367188 C 66.542969 167.152344 66.761719 168.929688 67.023438 170.703125 C 67.289062 172.476562 67.59375 174.246094 67.945312 176.003906 C 68.292969 177.761719 68.6875 179.511719 69.121094 181.25 C 69.558594 182.992188 70.035156 184.71875 70.554688 186.433594 C 71.074219 188.152344 71.636719 189.855469 72.242188 191.542969 C 72.84375 193.230469 73.488281 194.902344 74.175781 196.558594 C 74.863281 198.21875 75.589844 199.855469 76.355469 201.476562 C 77.121094 203.097656 77.925781 204.699219 78.769531 206.28125 C 79.617188 207.863281 80.5 209.421875 81.421875 210.960938 C 82.34375 212.5 83.300781 214.015625 84.296875 215.503906 C 85.292969 216.996094 86.324219 218.460938 87.390625 219.902344 C 88.460938 221.34375 89.5625 222.757812 90.699219 224.144531 C 91.835938 225.53125 93.007812 226.886719 94.210938 228.214844 C 95.414062 229.546875 96.648438 230.84375 97.917969 232.113281 C 99.183594 233.378906 100.480469 234.617188 101.808594 235.820312 C 103.136719 237.023438 104.496094 238.195312 105.878906 239.332031 C 107.265625 240.472656 108.679688 241.574219 110.117188 242.640625 C 111.558594 243.710938 113.023438 244.742188 114.511719 245.738281 C 116.003906 246.734375 117.515625 247.695312 119.054688 248.617188 C 120.59375 249.539062 122.152344 250.421875 123.730469 251.269531 C 125.3125 252.113281 126.914062 252.917969 128.535156 253.6875 C 130.152344 254.453125 131.792969 255.179688 133.449219 255.867188 C 135.105469 256.550781 136.773438 257.199219 138.464844 257.800781 C 140.152344 258.40625 141.851562 258.96875 143.566406 259.488281 C 145.28125 260.007812 147.007812 260.488281 148.746094 260.921875 C 150.488281 261.359375 152.234375 261.75 153.992188 262.101562 C 155.75 262.453125 157.515625 262.757812 159.289062 263.019531 C 161.0625 263.285156 162.839844 263.503906 164.625 263.679688 C 166.40625 263.855469 168.195312 263.988281 169.984375 264.074219 C 171.773438 264.164062 173.566406 264.207031 175.359375 264.207031 C 177.152344 264.207031 178.941406 264.164062 180.734375 264.074219 C 182.523438 263.988281 184.308594 263.855469 186.09375 263.679688 C 187.878906 263.503906 189.65625 263.285156 191.429688 263.019531 C 193.203125 262.757812 194.96875 262.453125 196.726562 262.101562 C 198.484375 261.75 200.230469 261.359375 201.96875 260.921875 C 203.707031 260.488281 205.4375 260.007812 207.152344 259.488281 C 208.867188 258.96875 210.566406 258.40625 212.253906 257.800781 C 213.941406 257.199219 215.613281 256.550781 217.269531 255.867188 C 218.925781 255.179688 220.566406 254.453125 222.183594 253.6875 C 223.804688 252.917969 225.40625 252.113281 226.988281 251.269531 C 228.566406 250.421875 230.125 249.539062 231.664062 248.617188 C 233.199219 247.695312 234.714844 246.734375 236.203125 245.738281 C 237.695312 244.742188 239.160156 243.710938 240.601562 242.640625 C 242.039062 241.574219 243.453125 240.472656 244.835938 239.332031 C 246.222656 238.195312 247.578125 237.023438 248.90625 235.820312 C 250.234375 234.617188 251.535156 233.378906 252.800781 232.113281 C 254.070312 230.84375 255.304688 229.546875 256.507812 228.214844 C 257.710938 226.886719 258.882812 225.53125 260.019531 224.144531 C 261.15625 222.757812 262.257812 221.34375 263.328125 219.902344 C 264.394531 218.460938 265.425781 216.996094 266.421875 215.503906 C 267.417969 214.015625 268.375 212.5 269.296875 210.960938 C 270.21875 209.421875 271.101562 207.863281 271.945312 206.28125 C 272.792969 204.699219 273.597656 203.097656 274.363281 201.476562 C 275.128906 199.855469 275.855469 198.21875 276.542969 196.558594 C 277.226562 194.902344 277.871094 193.230469 278.476562 191.542969 C 279.082031 189.855469 279.644531 188.152344 280.164062 186.433594 C 280.683594 184.71875 281.160156 182.992188 281.597656 181.25 C 282.03125 179.511719 282.425781 177.761719 282.773438 176.003906 C 283.125 174.246094 283.429688 172.476562 283.695312 170.703125 C 283.957031 168.929688 284.175781 167.152344 284.351562 165.367188 C 284.527344 163.582031 284.660156 161.792969 284.746094 160.003906 C 284.835938 158.210938 284.878906 156.417969 284.878906 154.625 C 284.878906 152.832031 284.835938 151.039062 284.746094 149.25 C 284.660156 147.457031 284.527344 145.667969 284.351562 143.882812 C 284.175781 142.101562 283.957031 140.320312 283.695312 138.546875 C 283.429688 136.773438 283.125 135.007812 282.773438 133.246094 C 282.425781 131.488281 282.03125 129.738281 281.597656 128 C 281.160156 126.257812 280.683594 124.53125 280.164062 122.816406 C 279.644531 121.097656 279.082031 119.398438 278.476562 117.707031 C 277.871094 116.019531 277.226562 114.347656 276.542969 112.691406 C 275.855469 111.035156 275.128906 109.394531 274.363281 107.773438 C 273.597656 106.152344 272.792969 104.550781 271.945312 102.96875 C 271.101562 101.386719 270.21875 99.828125 269.296875 98.289062 C 268.375 96.75 267.417969 95.234375 266.421875 93.746094 C 265.425781 92.253906 264.394531 90.789062 263.328125 89.347656 C 262.257812 87.90625 261.15625 86.492188 260.019531 85.105469 C 258.882812 83.722656 257.710938 82.363281 256.507812 81.035156 C 255.304688 79.707031 254.070312 78.40625 252.800781 77.140625 C 251.535156 75.871094 250.234375 74.636719 248.90625 73.429688 C 247.578125 72.226562 246.222656 71.054688 244.835938 69.917969 C 243.453125 68.78125 242.039062 67.675781 240.601562 66.609375 C 239.160156 65.539062 237.695312 64.507812 236.203125 63.511719 C 234.714844 62.515625 233.199219 61.554688 231.664062 60.632812 C 230.125 59.710938 228.566406 58.828125 226.988281 57.984375 C 225.40625 57.136719 223.804688 56.332031 222.183594 55.566406 C 220.566406 54.796875 218.925781 54.070312 217.269531 53.386719 C 215.613281 52.699219 213.941406 52.054688 212.253906 51.449219 C 210.566406 50.84375 208.867188 50.28125 207.152344 49.761719 C 205.4375 49.242188 203.707031 48.761719 201.96875 48.328125 C 200.230469 47.890625 198.484375 47.5 196.726562 47.148438 C 194.96875 46.800781 193.203125 46.492188 191.429688 46.230469 C 189.65625 45.964844 187.878906 45.746094 186.09375 45.570312 C 184.308594 45.394531 182.523438 45.261719 180.734375 45.175781 C 178.941406 45.085938 177.152344 45.042969 175.359375 45.042969 Z M 175.359375 45.042969 " fill-opacity="1" fill-rule="nonzero"/></g><path fill="#29fd53" d="M 328.6875 373.789062 C 327.183594 373.785156 325.699219 373.625 324.230469 373.316406 C 322.761719 373.003906 321.339844 372.550781 319.964844 371.945312 C 318.589844 371.34375 317.289062 370.605469 316.0625 369.734375 C 314.839844 368.863281 313.71875 367.878906 312.695312 366.777344 L 231.871094 279.109375 C 231.332031 278.59375 230.820312 278.050781 230.335938 277.480469 C 229.851562 276.914062 229.398438 276.320312 228.972656 275.703125 C 228.550781 275.089844 228.160156 274.453125 227.800781 273.796875 C 227.441406 273.144531 227.117188 272.46875 226.828125 271.78125 C 226.539062 271.09375 226.285156 270.390625 226.066406 269.675781 C 225.847656 268.960938 225.667969 268.238281 225.523438 267.503906 C 225.378906 266.769531 225.273438 266.03125 225.203125 265.289062 C 225.136719 264.542969 225.105469 263.796875 225.113281 263.050781 C 225.121094 262.304688 225.167969 261.558594 225.25 260.816406 C 225.335938 260.074219 225.457031 259.335938 225.613281 258.609375 C 225.773438 257.878906 225.96875 257.15625 226.203125 256.449219 C 226.4375 255.738281 226.703125 255.039062 227.007812 254.359375 C 227.3125 253.675781 227.648438 253.011719 228.023438 252.363281 C 228.394531 251.714844 228.796875 251.085938 229.234375 250.480469 C 229.671875 249.875 230.136719 249.289062 230.632812 248.730469 C 231.128906 248.171875 231.648438 247.640625 232.199219 247.136719 C 232.75 246.628906 233.324219 246.152344 233.921875 245.707031 C 234.523438 245.261719 235.140625 244.84375 235.785156 244.460938 C 236.425781 244.078125 237.082031 243.730469 237.761719 243.414062 C 238.4375 243.097656 239.128906 242.816406 239.835938 242.570312 C 240.539062 242.328125 241.257812 242.117188 241.984375 241.945312 C 242.710938 241.773438 243.445312 241.640625 244.183594 241.542969 C 244.925781 241.449219 245.667969 241.390625 246.414062 241.367188 C 247.160156 241.347656 247.90625 241.367188 248.652344 241.421875 C 249.398438 241.476562 250.136719 241.570312 250.871094 241.703125 C 251.609375 241.835938 252.335938 242.003906 253.050781 242.210938 C 253.769531 242.414062 254.476562 242.65625 255.167969 242.933594 C 255.863281 243.214844 256.539062 243.527344 257.199219 243.875 C 257.863281 244.222656 258.503906 244.601562 259.125 245.015625 C 259.75 245.425781 260.347656 245.871094 260.925781 246.347656 C 261.5 246.820312 262.054688 247.324219 262.578125 247.855469 C 263.105469 248.386719 263.601562 248.941406 264.070312 249.523438 L 344.675781 337.1875 C 345.378906 337.96875 346.023438 338.792969 346.605469 339.664062 C 347.191406 340.535156 347.707031 341.441406 348.164062 342.386719 C 348.617188 343.332031 349 344.304688 349.316406 345.304688 C 349.628906 346.304688 349.871094 347.324219 350.039062 348.359375 C 350.207031 349.394531 350.300781 350.4375 350.316406 351.484375 C 350.335938 352.53125 350.28125 353.578125 350.148438 354.617188 C 350.019531 355.65625 349.8125 356.683594 349.535156 357.695312 C 349.257812 358.707031 348.90625 359.691406 348.488281 360.652344 C 348.066406 361.613281 347.582031 362.539062 347.027344 363.429688 C 346.476562 364.320312 345.863281 365.167969 345.1875 365.972656 C 344.515625 366.773438 343.785156 367.523438 343.003906 368.222656 C 342.222656 368.921875 341.394531 369.5625 340.523438 370.140625 C 339.648438 370.71875 338.738281 371.234375 337.789062 371.683594 C 336.84375 372.132812 335.867188 372.511719 334.867188 372.820312 C 333.867188 373.128906 332.847656 373.363281 331.8125 373.527344 C 330.777344 373.6875 329.734375 373.777344 328.6875 373.789062 Z M 328.6875 373.789062 " fill-opacity="1" fill-rule="nonzero"/></svg>