<svg xmlns="http://www.w3.org/2000/svg" xmlns:xlink="http://www.w3.org/1999/xlink" width="500" zoomAndPan="magnify" viewBox="0 0 375 374.999991" height="500" preserveAspectRatio="xMidYMid meet" version="1.0"><defs><clipPath id="2a0a09ae68"><path d="M 11.71875 180 L 363.46875 180 L 363.46875 344 L 11.71875 344 Z M 11.71875 180 " clip-rule="nonzero"/></clipPath></defs><g clip-path="url(#2a0a09ae68)"><path fill="#29fd53" d="M 249.75 180.210938 C 231.25 194.761719 207.953125 203.472656 182.636719 203.472656 C 157.953125 203.472656 135.167969 195.195312 116.894531 181.285156 C 57.265625 190.917969 11.71875 242.589844 11.71875 304.910156 C 11.71875 374.09375 67.828125 329.117188 137.039062 329.117188 L 238.140625 329.117188 C 307.355469 329.117188 363.46875 374.09375 363.46875 304.910156 C 363.46875 239.652344 313.519531 186.066406 249.75 180.210938 Z M 249.75 180.210938 " fill-opacity="1" fill-rule="nonzero"/></g><path fill="#29fd53" d="M 182.636719 188.894531 C 234.558594 188.894531 276.796875 146.671875 276.796875 94.773438 C 276.796875 42.878906 234.558594 0.65625 182.636719 0.65625 C 130.714844 0.65625 88.472656 42.878906 88.472656 94.773438 C 88.476562 146.671875 130.71875 188.894531 182.636719 188.894531 Z M 182.636719 188.894531 " fill-opacity="1" fill-rule="nonzero"/></svg>